<?xml version="1.0" encoding="UTF-8" standalone="no"?>
<svg
   xmlns:dc="http://purl.org/dc/elements/1.1/"
   xmlns:cc="http://creativecommons.org/ns#"
   xmlns:rdf="http://www.w3.org/1999/02/22-rdf-syntax-ns#"
   xmlns:svg="http://www.w3.org/2000/svg"
   xmlns="http://www.w3.org/2000/svg"
   xmlns:xlink="http://www.w3.org/1999/xlink"
   xmlns:sodipodi="http://sodipodi.sourceforge.net/DTD/sodipodi-0.dtd"
   xmlns:inkscape="http://www.inkscape.org/namespaces/inkscape"
   width="1000"
   height="1000"
   viewBox="0 0 800 800"
   version="1.1"
   id="svg3034"
   inkscape:version="0.48.5 r10040"
   sodipodi:docname="icon.svg"
   inkscape:export-filename="/Users/florianbauckholt/_GitRepos/Seife, JaMei/icon.png"
   inkscape:export-xdpi="90"
   inkscape:export-ydpi="90">
  <metadata
     id="metadata3043">
    <rdf:RDF>
      <cc:Work
         rdf:about="">
        <dc:format>image/svg+xml</dc:format>
        <dc:type
           rdf:resource="http://purl.org/dc/dcmitype/StillImage" />
        <dc:title></dc:title>
      </cc:Work>
    </rdf:RDF>
  </metadata>
  <defs
     id="defs3041">
    <inkscape:path-effect
       effect="skeletal"
       id="path-effect3071"
       is_visible="true"
       pattern="M 0,0 0,10 10,5 z"
       copytype="single_stretched"
       prop_scale="1"
       scale_y_rel="false"
       spacing="0"
       normal_offset="0"
       tang_offset="0"
       prop_units="false"
       vertical_pattern="false"
       fuse_tolerance="0" />
    <inkscape:path-effect
       effect="skeletal"
       id="path-effect3067"
       is_visible="true"
       pattern="M 0,0 0,10 10,5 z"
       copytype="single_stretched"
       prop_scale="1"
       scale_y_rel="false"
       spacing="0"
       normal_offset="0"
       tang_offset="0"
       prop_units="false"
       vertical_pattern="false"
       fuse_tolerance="0" />
    <linearGradient
       id="linearGradient3053">
      <stop
         style="stop-color:#ffffff;stop-opacity:1;"
         offset="0"
         id="stop3055" />
      <stop
         style="stop-color:#ff0000;stop-opacity:1;"
         offset="1"
         id="stop3057" />
    </linearGradient>
    <linearGradient
       inkscape:collect="always"
       xlink:href="#linearGradient3053"
       id="linearGradient3059"
       x1="443.34433"
       y1="289.53604"
       x2="1001.0654"
       y2="864.00055"
       gradientUnits="userSpaceOnUse" />
  </defs>
  <sodipodi:namedview
     pagecolor="#ffffff"
     bordercolor="#666666"
     borderopacity="1"
     objecttolerance="10"
     gridtolerance="10"
     guidetolerance="10"
     inkscape:pageopacity="0"
     inkscape:pageshadow="2"
     inkscape:window-width="1920"
     inkscape:window-height="1152"
     id="namedview3039"
     showgrid="true"
     inkscape:zoom="0.98688516"
     inkscape:cx="527.2108"
     inkscape:cy="472.46305"
     inkscape:window-x="0"
     inkscape:window-y="0"
     inkscape:window-maximized="1"
     inkscape:current-layer="svg3034">
    <inkscape:grid
       type="xygrid"
       id="grid3049"
       empspacing="5"
       visible="true"
       enabled="true"
       snapvisiblegridlinesonly="true"
       spacingx="100px"
       spacingy="100px" />
  </sodipodi:namedview>
  <path
     sodipodi:type="arc"
     style="fill:#0000ff;fill-rule:evenodd;stroke:#000000;stroke-width:1.00011658;stroke-linecap:butt;stroke-linejoin:miter;stroke-opacity:1;stroke-miterlimit:4;stroke-dasharray:none"
     id="path3047"
     sodipodi:cx="790.19025"
     sodipodi:cy="658.94293"
     sodipodi:rx="393.74207"
     sodipodi:ry="393.74207"
     d="m 1183.9323,658.94293 a 393.74207,393.74207 0 1 1 -787.48412,0 393.74207,393.74207 0 1 1 787.48412,0 z"
     transform="matrix(0.91669313,0,0,0.91669313,-324.88504,-204.04846)" />
  <g
     id="#e7ecf0ff"
     style="fill:url(#linearGradient3059);fill-opacity:1"
     transform="matrix(1.147527,0,0,1.147527,-348.74958,-191.46395)">
    <path
       d="m 699.82,225.16 c 8.35,-0.99 16.69,0.27 24.96,1.25 13.96,1.63 27.71,4.91 40.99,9.5 17.27,5.55 33.56,14.28 47.69,25.67 7.77,5.95 14.66,13.28 19.36,21.9 2.19,4.12 3.57,8.94 2.47,13.59 -1.75,5.38 -7.7,9.14 -13.33,7.99 -5.95,-0.74 -11.09,-4 -16.46,-6.41 -11.8,-6.03 -24.8,-9.1 -37.63,-12.06 -26.86,-5.31 -54.86,-5.95 -81.68,-0.01 -35.99,7.8 -70.65,26.86 -92.59,56.98 -13.14,18.15 -21.64,39.9 -22.89,62.35 0.03,4.95 -0.16,10.29 2.21,14.8 2.12,0.41 2.72,-1.83 3.56,-3.26 13.18,-27.47 36.11,-49.18 61.9,-64.83 29.45,-17.29 63.55,-26.34 97.66,-26.52 8.98,-0.98 17.94,0.31 26.92,0.59 28.26,2.48 56.3,10.35 80.83,24.81 22.95,13.46 42.85,31.99 58.51,53.45 15.26,20.62 26.56,43.92 35.06,68.06 7.19,24.52 9.54,50.41 6.95,75.83 -2.12,15.14 -5.01,30.47 -11.81,44.3 -3.3,7.58 -7.9,14.72 -13.98,20.36 -3.63,3.53 -9.04,5.47 -14.01,3.97 -5.32,-2.05 -8.45,-7.91 -8.24,-13.45 -0.46,-5.39 1.04,-10.61 1.84,-15.88 1.4,-14.78 0.53,-29.72 -1.73,-44.37 -2.07,-15.25 -6.12,-30.15 -11.53,-44.55 -6.2,-16.85 -15.64,-32.31 -26.38,-46.63 -10.42,-12.53 -21.91,-24.41 -35.52,-33.5 -26.94,-18.71 -61.53,-27.24 -93.86,-20.46 -6.95,1.81 -14.61,3.19 -19.88,8.48 2.15,1.95 5.13,2.09 7.86,2.47 9.69,1.25 19.06,4.19 28.08,7.87 36.38,14.16 66.44,41.98 86.49,75.16 19.6,33.36 30.72,71.7 31.74,110.37 -0.6,9.98 -0.59,20.01 -2.42,29.89 -2.09,11.65 -4.97,23.2 -8.92,34.38 -12.77,33.93 -34.81,63.98 -62.01,87.8 -7.91,6.91 -15.94,13.8 -24.99,19.19 -14.02,8.76 -29.18,15.68 -44.94,20.65 -4.29,1.57 -8.89,2.16 -13.03,4.13 -4.15,1.91 -8.78,1.36 -13.17,2.04 -19.09,2.86 -39.5,3.55 -57.58,-4.26 -0.48,-0.25 -1.44,-0.77 -1.92,-1.02 -3.72,-2.23 -7.59,-5.02 -9.02,-9.3 -1.58,-5.13 0.92,-10.97 5.53,-13.63 6.41,-3.71 13.99,-4.12 21.08,-5.68 8.32,-1.21 16.07,-4.56 23.94,-7.34 29.82,-11.83 57.27,-30.22 78.32,-54.56 11.54,-13.16 20.97,-28.12 28.05,-44.12 4.13,-10.43 7.9,-21.1 9.62,-32.23 0.55,-1.8 0.69,-3.7 0.81,-5.55 0.13,0.03 0.39,0.11 0.52,0.15 0.23,-10.46 1.32,-21.14 -0.43,-31.48 -0.25,-2.31 -0.35,-4.64 -0.9,-6.9 -0.32,-1.68 -0.58,-3.35 -0.88,-5.02 -1.22,-5.8 -2.86,-11.52 -5.22,-16.96 -0.88,-2.49 -1.85,-4.94 -3.08,-7.27 0.01,-0.33 0.02,-1 0.02,-1.33 l -0.79,-0.18 c -0.68,-1.45 -1.37,-2.89 -2.06,-4.32 -0.75,-1.26 -1.45,-2.53 -2.11,-3.81 -2.63,-3.99 -5.38,-7.92 -8.77,-11.3 -1,-0.73 -1.96,-1.51 -2.84,-2.35 -0.82,0.02 -1.62,0.06 -2.42,0.1 -0.03,5.51 1.73,10.82 2.09,16.3 2.21,26.62 -3.6,53.44 -14,77.88 -19.39,44.53 -56.76,79.39 -99.51,101.39 -28.32,14.55 -60.5,21.69 -92.3,20.03 -44.42,-1.94 -86.96,-19.85 -122.56,-45.88 -29.11,-24 -53.38,-55.55 -63.28,-92.39 -2.24,-8.79 -3.54,-17.96 -2.51,-27.02 0.7,-5.06 2.27,-10.72 6.86,-13.61 4.27,-2.54 10.34,-2.52 14.01,1.12 7.37,6.89 10.22,16.97 15.93,25.07 17.39,25.26 40.48,46.61 67,62.02 29.94,17.01 64.97,25.88 99.41,22.3 31.33,-3.35 61.86,-18.54 81.6,-43.4 2.77,-4 6.03,-8.11 6.38,-13.16 -2.01,0.2 -3.98,0.69 -5.69,1.78 -17.22,9.54 -36.74,14.18 -56.26,15.66 -38.85,3.32 -78.27,-7.09 -111.63,-26.93 -27.72,-16.28 -52.44,-38.14 -70.64,-64.74 -21.14,-31.01 -31.74,-68.68 -31.33,-106.11 -0.2,-17.99 1.92,-35.95 5.92,-53.49 2.56,-11.5 5.29,-23.1 10.52,-33.73 10.4,-24.67 26.23,-46.96 45.76,-65.24 11.14,-9.76 23.44,-18.68 37.62,-23.4 5.43,-1.73 11.33,-2.64 16.96,-1.46 6.54,1.66 10.27,9.83 7.28,15.86 -3.32,7.74 -10.29,12.9 -15.62,19.15 -11.76,13.93 -21.04,29.82 -28.46,46.43 -16.69,36.93 -21.88,79.58 -11.45,118.98 7.37,30.04 25.62,57.6 51.37,74.96 8.59,5.98 18.07,10.84 28.2,13.62 2.96,0.91 6.09,0.87 9.15,0.51 -0.34,-3.33 -3.27,-5.23 -5.35,-7.48 -16.24,-15.9 -27.14,-36.42 -34.59,-57.71 -11.11,-33.9 -12.31,-70.9 -3.95,-105.55 8.35,-35.43 24.2,-69.72 49.23,-96.49 16.5,-17.87 36.75,-32.12 58.85,-42.22 28.52,-13.01 59.76,-19.68 91.04,-20.59 z"
       id="path3037"
       style="fill:url(#linearGradient3059);fill-opacity:1"
       inkscape:connector-curvature="0" />
  </g>
  <path
     style="fill:none;fill-rule:evenodd;stroke:none"
     d="m 104.60268,698.0467 -9.205356,3.9066 c 43.348326,100.44715 86.625206,200.84701 129.830656,301.1996 259.18244,-0.5511 518.01152,-1.0303 776.48722,-1.4377 0,0 0,0 0,-10e-5 0.2338,-217.63632 0.3626,-435.00453 0.3862,-652.10462 -62.25511,-56.59345 -124.39741,-113.21433 -186.42688,-169.86263 37.29814,73.58892 74.69527,147.13602 112.19139,220.6413 0,6e-5 0,1.2e-4 0,1.8e-4 -1.67893,73.82752 -3.36231,147.71086 -5.05015,221.65002 -52.07401,70.63814 -104.1816,141.3304 -156.3228,212.0768 -55.53117,29.30901 -111.09712,58.63625 -166.69785,87.98171 -6e-5,0 -1.2e-4,10e-6 -1.8e-4,10e-6 -57.78198,1.88081 -115.60176,3.76202 -173.45933,5.64362 C 359.63372,894.49553 292.89216,861.23367 226.11091,827.95588 184.08532,785.3122 142.04835,742.66024 100,700 c 41.92628,42.78022 83.86394,85.56871 125.81299,128.36548 66.72121,33.47345 133.48211,66.96281 200.28269,100.46809 57.99855,-1.72658 116.0349,-3.45355 174.10904,-5.18091 6e-5,0 1.1e-4,0 1.7e-4,0 55.85804,-29.28738 111.75087,-58.59298 167.67847,-87.91681 52.49587,-70.87446 105.02534,-141.80306 157.5884,-212.78578 1.92034,-74.39056 3.84513,-148.83694 5.77439,-223.33914 0,-3e-5 0,-5e-5 0,-8e-5 -38.27555,-73.1332 -76.65009,-146.22458 -115.12363,-219.27414 60.70485,57.00921 121.29687,114.04584 181.77606,171.10989 0.0237,215.8808 0.15239,431.49347 0.38621,646.83801 0,6e-5 0,1.2e-4 0,1.8e-4 C 741.63717,997.87744 485.34292,997.39821 229.40204,996.84711 187.73081,897.19969 146.13103,797.59955 104.60268,698.0467 z"
     id="path3069"
     inkscape:path-effect="#path-effect3071"
     inkscape:original-d="M 100,700 227.31501,1000 1000,1000 1000,350.52854 815.89852,180.04228 929.55603,400 924.14376,622.49471 767.18816,834.926 600,922.87526 426.21564,928.28753 225.96195,828.16068 z"
     inkscape:connector-curvature="0"
     transform="scale(0.8,0.8)" />
  <path
     style="fill:#ffffff"
     d="m 271.91968,995.68077 -42.4651,-0.70557 -45.79529,-109.59831 c -25.18742,-60.27907 -45.63614,-110.11243 -45.4416,-110.7408 0.19453,-0.62836 5.44968,5.08404 11.67812,12.69425 61.04591,74.58885 146.03728,128.3322 239.58411,151.49832 33.85123,8.383 59.8903,11.89327 96.74418,13.04189 106.95993,3.33359 210.77242,-31.20957 295.64482,-98.37453 18.17171,-14.38045 55.92832,-52.04022 70.00901,-69.82946 60.81144,-76.82786 94.47607,-165.48436 98.85943,-260.34841 3.3838,-73.23194 -8.64104,-139.83665 -37.0252,-205.07978 -12.63734,-29.04786 -33.41691,-64.68763 -51.84383,-88.91923 -3.88655,-5.11083 -6.82052,-9.53833 -6.51997,-9.83889 0.30057,-0.30056 32.29657,29.34233 71.10223,65.8731 l 70.55575,66.41958 0,322.61593 0,322.61594 -341.31078,-0.30923 c -187.72093,-0.17008 -360.42007,-0.62674 -383.77588,-1.0148 l 0,0 z"
     id="path3073"
     inkscape:connector-curvature="0"
     transform="scale(0.8,0.8)" />
  <path
     style="fill:#999999;"
     d="m 271.91968,995.68077 -42.4651,-0.70557 -45.79529,-109.59831 c -25.18742,-60.27907 -45.63614,-110.11243 -45.4416,-110.7408 0.19453,-0.62836 5.30666,4.90929 11.36028,12.30591 28.5568,34.89207 62.1245,65.11881 100.59855,90.58606 60.04646,39.74674 123.79724,62.78616 200.19134,72.34883 21.5383,2.69606 80.06885,2.31144 103.13916,-0.67776 74.42974,-9.64379 141.69919,-35.07522 201.97712,-76.35807 69.85273,-47.84039 126.44296,-116.78333 159.62354,-194.46669 40.9884,-95.96328 47.4946,-205.00435 18.26741,-306.15351 -14.17054,-49.04129 -41.18551,-103.02898 -71.50676,-142.90172 -3.88655,-5.11083 -6.82052,-9.53833 -6.51997,-9.83889 0.30057,-0.30056 32.29657,29.34233 71.10223,65.8731 l 70.55575,66.41958 0,322.61593 0,322.61594 -341.31078,-0.30923 c -187.72093,-0.17008 -360.42007,-0.62674 -383.77588,-1.0148 l 0,0 z"
     id="path3075"
     inkscape:connector-curvature="0"
     transform="scale(0.8,0.8)" />
</svg>
